<svg xmlns="http://www.w3.org/2000/svg" viewBox="0 0 100 100">
  <defs>
    <linearGradient id="sky" x1="0" y1="0" x2="0" y2="1">
      <stop offset="0%" stop-color="#1A3050"/>
      <stop offset="55%" stop-color="#B83D0C"/>
      <stop offset="100%" stop-color="#E8851A"/>
    </linearGradient>
    <linearGradient id="water" x1="0" y1="0" x2="0" y2="1">
      <stop offset="0%" stop-color="#1A4D6E"/>
      <stop offset="100%" stop-color="#0D2B3E"/>
    </linearGradient>
  </defs>
  <!-- Sky -->
  <rect width="100" height="100" rx="14" fill="url(#sky)"/>
  <!-- Sun -->
  <circle cx="50" cy="56" r="11" fill="#F5A623"/>
  <!-- Water -->
  <rect x="0" y="63" width="100" height="37" rx="0" fill="url(#water)"/>
  <rect x="0" y="86" width="100" height="14" rx="0" fill="#0D2B3E"/>
  <path d="M0 86 Q25 82 50 86 Q75 90 100 86 L100 100 L0 100 Z" fill="#0D2B3E"/>
  <!-- Boat hull -->
  <path d="M28 70 L72 70 L64 80 L36 80 Z" fill="#1E2D40"/>
  <!-- Mast -->
  <rect x="49" y="20" width="2" height="51" fill="#F0EBE0"/>
  <!-- Main sail -->
  <path d="M50 22 L50 68 L18 65 Z" fill="#F5F0E8" opacity="0.95"/>
  <!-- Foresail -->
  <path d="M51 38 L51 68 L74 65 Z" fill="#F5F0E8" opacity="0.85"/>
</svg>
